<svg id="Layer_1" data-name="Layer 1" xmlns="http://www.w3.org/2000/svg" xmlns:xlink="http://www.w3.org/1999/xlink" viewBox="0 0 1000 300"><defs><style>.cls-1{fill:url(#linear-gradient);}.cls-2{fill:none;stroke:#000;stroke-miterlimit:10;}.cls-3{fill:#f7931e;}</style><linearGradient id="linear-gradient" x1="92.25" y1="61.01" x2="92.25" y2="211.79" gradientUnits="userSpaceOnUse"><stop offset="0" stop-color="#ffe480"/><stop offset="0.02" stop-color="#ffe17d"/><stop offset="0.2" stop-color="#fcc55b"/><stop offset="0.39" stop-color="#faaf40"/><stop offset="0.59" stop-color="#f89f2d"/><stop offset="0.79" stop-color="#f79622"/><stop offset="1" stop-color="#f7931e"/></linearGradient></defs><path id="path5473" class="cls-1" d="M99.26,61C57.79,96,24.83,155.37,58.62,197.3c24.75,23,62,18.19,75.93-11.64C159.75,130.5,86.47,114.27,99.26,61Z"/><line class="cls-2" x1="157" y1="61" x2="157" y2="212"/><path d="M244.27,109.35a42.8,42.8,0,0,1-2.7,15.53,34.43,34.43,0,0,1-7.63,12,34.06,34.06,0,0,1-11.85,7.71,41.31,41.31,0,0,1-15.29,2.73H178.45v-76H206.8a41.31,41.31,0,0,1,15.29,2.73,33.85,33.85,0,0,1,11.85,7.74,34.8,34.8,0,0,1,7.63,12A42.87,42.87,0,0,1,244.27,109.35Zm-10.54,0a38.12,38.12,0,0,0-1.91-12.5,26.3,26.3,0,0,0-5.41-9.33,23,23,0,0,0-8.48-5.83,29.3,29.3,0,0,0-11.13-2H188.73V139H206.8a29.5,29.5,0,0,0,11.13-2,23.26,23.26,0,0,0,8.48-5.81,26,26,0,0,0,5.41-9.3A38.14,38.14,0,0,0,233.73,109.35Z"/><path d="M315.19,147.3h-9.12a4.48,4.48,0,0,1-4.13-2.17L282.22,118a5.79,5.79,0,0,0-1.93-1.83,7.09,7.09,0,0,0-3.21-.55h-7.79V147.3H259.06v-76h21.47A47,47,0,0,1,293,72.81,23.87,23.87,0,0,1,301.65,77a17.06,17.06,0,0,1,5.06,6.65,22.36,22.36,0,0,1,1.64,8.72,21.8,21.8,0,0,1-1.27,7.53,20.13,20.13,0,0,1-3.68,6.28,22,22,0,0,1-5.89,4.74,29,29,0,0,1-7.87,3,10.09,10.09,0,0,1,3.39,3.23ZM280.1,108.13a26.13,26.13,0,0,0,7.87-1.08A16.19,16.19,0,0,0,293.7,104a12.78,12.78,0,0,0,3.47-4.74,15.63,15.63,0,0,0,1.16-6.09q0-6.8-4.45-10.23t-13.35-3.45H269.29v28.67Z"/><path d="M394.9,109.35A43.86,43.86,0,0,1,392.2,125a35.78,35.78,0,0,1-7.63,12.27,34.14,34.14,0,0,1-11.85,8,42.5,42.5,0,0,1-30.55,0,34,34,0,0,1-11.82-8A35.8,35.8,0,0,1,322.71,125a46.76,46.76,0,0,1,0-31.32,36.18,36.18,0,0,1,7.64-12.29,34,34,0,0,1,11.82-8,42.08,42.08,0,0,1,30.55,0,34.13,34.13,0,0,1,11.85,8,36.16,36.16,0,0,1,7.63,12.29A43.9,43.9,0,0,1,394.9,109.35Zm-10.55,0a38.67,38.67,0,0,0-1.9-12.56A26.81,26.81,0,0,0,377,87.38a23.35,23.35,0,0,0-8.48-5.9,30.82,30.82,0,0,0-22.21,0,23.6,23.6,0,0,0-8.5,5.9,26.56,26.56,0,0,0-5.44,9.41,38.67,38.67,0,0,0-1.9,12.56,38.42,38.42,0,0,0,1.9,12.54,26.52,26.52,0,0,0,5.44,9.38,23.43,23.43,0,0,0,8.5,5.88,31.25,31.25,0,0,0,22.21,0,23.19,23.19,0,0,0,8.48-5.88,26.76,26.76,0,0,0,5.41-9.38A38.42,38.42,0,0,0,384.35,109.35Z"/><path d="M432,71.35A42.15,42.15,0,0,1,444.53,73a24,24,0,0,1,8.83,4.75,19.07,19.07,0,0,1,5.22,7.42,26,26,0,0,1,1.72,9.69,24.81,24.81,0,0,1-1.85,9.7,20.81,20.81,0,0,1-5.44,7.58,25.29,25.29,0,0,1-8.85,5A38.17,38.17,0,0,1,432,118.89H419.81V147.3H409.58v-76Zm0,39.38a23.86,23.86,0,0,0,7.76-1.16,16.35,16.35,0,0,0,5.68-3.26,13.57,13.57,0,0,0,3.47-5,17.3,17.3,0,0,0,1.16-6.42q0-7.26-4.48-11.34T432,79.46H419.81v31.27Z"/><path d="M507.74,147.3H497.45v-76h10.29Z"/><path d="M588.67,71.35v76h-5.14a4.41,4.41,0,0,1-2-.42,5.24,5.24,0,0,1-1.62-1.43L535.93,88.21c.07.88.12,1.75.16,2.59s0,1.65,0,2.39V147.3h-9v-76h5.3a7.67,7.67,0,0,1,1.17.08,2.74,2.74,0,0,1,.85.27,3.31,3.31,0,0,1,.74.53,7.85,7.85,0,0,1,.79.87l43.94,57.19c-.07-.92-.13-1.81-.18-2.68s-.08-1.69-.08-2.46V71.35Z"/><path d="M688.52,131.61a2,2,0,0,1,1.48.69l4.08,4.4a32.53,32.53,0,0,1-11.31,8.43,38.83,38.83,0,0,1-16.09,3,37.61,37.61,0,0,1-14.84-2.84,32.59,32.59,0,0,1-11.39-7.95,35.85,35.85,0,0,1-7.32-12.27,45.84,45.84,0,0,1-2.59-15.74,44.27,44.27,0,0,1,2.7-15.74,36,36,0,0,1,7.6-12.29,34.07,34.07,0,0,1,11.74-8,39.11,39.11,0,0,1,15.11-2.84A36.86,36.86,0,0,1,682,73.1a36.09,36.09,0,0,1,10.92,7.05l-3.4,4.72a2.73,2.73,0,0,1-.82.87,2.33,2.33,0,0,1-1.35.35,4.2,4.2,0,0,1-2.33-1,36.18,36.18,0,0,0-3.6-2.3,26.74,26.74,0,0,0-13.79-3.34,27.57,27.57,0,0,0-10.75,2,23.4,23.4,0,0,0-8.4,5.91A27.14,27.14,0,0,0,643,96.79a37.59,37.59,0,0,0-2,12.56,36.65,36.65,0,0,0,2,12.67,27.94,27.94,0,0,0,5.56,9.41,23.51,23.51,0,0,0,8.33,5.85,26.33,26.33,0,0,0,10.36,2,42,42,0,0,0,6.12-.4,24.85,24.85,0,0,0,5-1.24,21.33,21.33,0,0,0,4.3-2.15,30.86,30.86,0,0,0,3.94-3.1A2.79,2.79,0,0,1,688.52,131.61Z"/><path d="M767.54,71.35v76H757.26V112.75h-41V147.3H706v-76h10.28v33.87h41V71.35Z"/><path d="M848.68,147.3h-7.95a3.43,3.43,0,0,1-2.23-.69,4.33,4.33,0,0,1-1.27-1.75l-7.1-18.33H796.05L789,144.86a3.73,3.73,0,0,1-1.22,1.7,3.41,3.41,0,0,1-2.23.74h-7.94l30.36-76h10.39Zm-21.41-28.19-11.93-30.9q-.52-1.38-1.11-3.21t-1.11-3.9a56.74,56.74,0,0,1-2.28,7.16l-11.93,30.85Z"/><path d="M902.58,80H878V147.3H867.76V80H843.12V71.35h59.46Z"/><path class="cls-3" d="M194.52,201.65l0,3H177.73V177.42H194.5v3H181.41v9H192v2.89h-10.6v9.29Z"/><path class="cls-3" d="M221.81,204.65H219a1.2,1.2,0,0,1-.8-.25,1.43,1.43,0,0,1-.46-.62l-2.54-6.58H202.94l-2.55,6.58a1.32,1.32,0,0,1-.43.61,1.28,1.28,0,0,1-.8.26h-2.85l10.88-27.23h3.73Zm-7.68-10.11-4.28-11.07c-.12-.33-.26-.72-.39-1.15s-.28-.9-.4-1.4a21.34,21.34,0,0,1-.82,2.57l-4.28,11Z"/><path class="cls-3" d="M239.32,181.68a1.33,1.33,0,0,1-.37.43.83.83,0,0,1-.48.14,1.37,1.37,0,0,1-.76-.32,12.92,12.92,0,0,0-1.09-.72,10.29,10.29,0,0,0-1.58-.71,7,7,0,0,0-2.23-.32,6.57,6.57,0,0,0-2.18.33,4.69,4.69,0,0,0-1.58.91,3.72,3.72,0,0,0-1,1.33,4.4,4.4,0,0,0-.32,1.67,3.09,3.09,0,0,0,.56,1.89,4.88,4.88,0,0,0,1.48,1.28,11.16,11.16,0,0,0,2.09.92l2.4.81c.81.28,1.61.59,2.39.94a8.43,8.43,0,0,1,2.09,1.32,5.81,5.81,0,0,1,1.48,2,6.41,6.41,0,0,1,.56,2.85,9.26,9.26,0,0,1-.6,3.35,7.83,7.83,0,0,1-1.78,2.73,8.34,8.34,0,0,1-2.87,1.82,10.6,10.6,0,0,1-3.87.67,11.75,11.75,0,0,1-4.82-1,11.34,11.34,0,0,1-3.71-2.6l1.07-1.75a1.55,1.55,0,0,1,.37-.35.87.87,0,0,1,.48-.14,1.09,1.09,0,0,1,.56.2c.21.13.45.3.71.5s.58.43.92.67a7.17,7.17,0,0,0,1.17.66,7.63,7.63,0,0,0,1.49.51,8.21,8.21,0,0,0,1.88.2,7,7,0,0,0,2.33-.36,5,5,0,0,0,1.74-1A4.46,4.46,0,0,0,237,199a5.28,5.28,0,0,0,.38-2,3.42,3.42,0,0,0-.56-2,4.76,4.76,0,0,0-1.48-1.33,10.35,10.35,0,0,0-2.09-.9l-2.39-.76a25.46,25.46,0,0,1-2.39-.9,7.81,7.81,0,0,1-2.1-1.33,6.32,6.32,0,0,1-1.47-2,7.86,7.86,0,0,1,0-5.83,7.19,7.19,0,0,1,1.64-2.39,7.84,7.84,0,0,1,2.64-1.67,9.56,9.56,0,0,1,3.6-.63,11.48,11.48,0,0,1,4.15.72,9.81,9.81,0,0,1,3.3,2.09Z"/><path class="cls-3" d="M255.68,193.8v10.85H252V193.8l-10-16.38h3.23a1.17,1.17,0,0,1,.78.24,2.21,2.21,0,0,1,.49.62l6.24,10.58.62,1.25a10,10,0,0,1,.5,1.17,11.9,11.9,0,0,1,.47-1.17l.59-1.25,6.21-10.58a2.22,2.22,0,0,1,.48-.59,1.12,1.12,0,0,1,.78-.27h3.25Z"/><path class="cls-3" d="M296.51,199a.71.71,0,0,1,.54.25l1.46,1.57a11.7,11.7,0,0,1-4.06,3,13.9,13.9,0,0,1-5.76,1.09,13.39,13.39,0,0,1-5.32-1,11.77,11.77,0,0,1-4.09-2.85,12.81,12.81,0,0,1-2.62-4.4,16.44,16.44,0,0,1-.93-5.64,15.85,15.85,0,0,1,1-5.65,12.91,12.91,0,0,1,2.72-4.4,12.1,12.1,0,0,1,4.21-2.86,14,14,0,0,1,5.42-1,13.26,13.26,0,0,1,5.13.93,12.84,12.84,0,0,1,3.91,2.53l-1.22,1.69a.86.86,0,0,1-.29.31.78.78,0,0,1-.48.13,1.56,1.56,0,0,1-.84-.37,11.76,11.76,0,0,0-1.29-.83,9.59,9.59,0,0,0-4.94-1.2,10.05,10.05,0,0,0-3.86.73,8.44,8.44,0,0,0-3,2.12,9.88,9.88,0,0,0-2,3.38,13.55,13.55,0,0,0-.7,4.51,13.07,13.07,0,0,0,.73,4.54,10,10,0,0,0,2,3.37,8.33,8.33,0,0,0,3,2.1,9.51,9.51,0,0,0,3.71.72,14.71,14.71,0,0,0,2.2-.14,8.78,8.78,0,0,0,1.8-.45,7.39,7.39,0,0,0,1.54-.77,10.76,10.76,0,0,0,1.42-1.11A1,1,0,0,1,296.51,199Z"/><path class="cls-3" d="M324.84,177.42v27.23h-3.68V192.26H306.47v12.39h-3.69V177.42h3.69v12.15h14.69V177.42Z"/><path class="cls-3" d="M353.93,204.65h-2.85a1.22,1.22,0,0,1-.8-.25,1.49,1.49,0,0,1-.45-.62l-2.55-6.58H335.06l-2.54,6.58a1.35,1.35,0,0,1-.44.61,1.24,1.24,0,0,1-.8.26h-2.85l10.89-27.23H343Zm-7.68-10.11L342,183.47c-.13-.33-.26-.72-.4-1.15s-.27-.9-.4-1.4a19.69,19.69,0,0,1-.82,2.57l-4.27,11Z"/><path class="cls-3" d="M373.25,180.52h-8.81v24.13h-3.67V180.52h-8.83v-3.1h21.31Z"/><path class="cls-3" d="M389.56,204.65h-3.69V177.42h3.69Z"/><path class="cls-3" d="M418.57,177.42v27.23h-1.84a1.62,1.62,0,0,1-.74-.15,1.9,1.9,0,0,1-.58-.51l-15.75-20.52q0,.47.06.93c0,.3,0,.59,0,.85v19.4h-3.23V177.42h1.9a2.58,2.58,0,0,1,.42,0,1,1,0,0,1,.3.1,1.11,1.11,0,0,1,.27.19,3,3,0,0,1,.28.31l15.75,20.5q0-.5-.06-1c0-.31,0-.6,0-.88V177.42Z"/><path class="cls-3" d="M443.93,180.52h-8.81v24.13h-3.67V180.52h-8.83v-3.1h21.31Z"/><path class="cls-3" d="M464.76,201.65l0,3H448V177.42h16.78v3H451.65v9h10.6v2.89h-10.6v9.29Z"/><path class="cls-3" d="M491.43,191.56V202a14.81,14.81,0,0,1-4.38,2.21,16.85,16.85,0,0,1-5.1.74,16.36,16.36,0,0,1-5.93-1,13.15,13.15,0,0,1-4.51-2.85,12.37,12.37,0,0,1-2.88-4.4,15.33,15.33,0,0,1-1-5.64,15.86,15.86,0,0,1,1-5.68,12.58,12.58,0,0,1,2.79-4.4,12.29,12.29,0,0,1,4.39-2.84,15.81,15.81,0,0,1,5.77-1,17.74,17.74,0,0,1,3,.24,14.73,14.73,0,0,1,2.56.68,12.74,12.74,0,0,1,2.19,1.08,14.62,14.62,0,0,1,1.88,1.44l-1.05,1.67a1.06,1.06,0,0,1-.64.49,1.11,1.11,0,0,1-.86-.18l-1-.65a9.61,9.61,0,0,0-1.44-.73,10.71,10.71,0,0,0-2-.6,13.52,13.52,0,0,0-2.73-.25,11,11,0,0,0-4.16.75,8.78,8.78,0,0,0-3.17,2.15,9.46,9.46,0,0,0-2,3.38,14.68,14.68,0,0,0,0,9,9.63,9.63,0,0,0,2.09,3.44,8.87,8.87,0,0,0,3.3,2.15,13.27,13.27,0,0,0,7.72.31,14.2,14.2,0,0,0,2.88-1.18v-6h-4.24a.81.81,0,0,1-.58-.21.7.7,0,0,1-.22-.51v-2.09Z"/><path class="cls-3" d="M517.2,204.65h-3.27a1.6,1.6,0,0,1-1.48-.78l-7.07-9.73a2.19,2.19,0,0,0-.69-.65,2.58,2.58,0,0,0-1.15-.2h-2.8v11.36h-3.66V177.42h7.69a16.81,16.81,0,0,1,4.47.53,8.47,8.47,0,0,1,3.1,1.51,6.11,6.11,0,0,1,1.82,2.38,8.39,8.39,0,0,1,.13,5.83,7.09,7.09,0,0,1-1.32,2.25,8.08,8.08,0,0,1-2.11,1.7,10.38,10.38,0,0,1-2.82,1.06,3.72,3.72,0,0,1,1.22,1.16Zm-12.58-14a9.33,9.33,0,0,0,2.82-.39,5.82,5.82,0,0,0,2.05-1.1,4.64,4.64,0,0,0,1.25-1.7,5.55,5.55,0,0,0,.42-2.19,4.35,4.35,0,0,0-1.6-3.66,7.7,7.7,0,0,0-4.79-1.24h-4v10.28Z"/><path class="cls-3" d="M543,204.65h-2.85a1.2,1.2,0,0,1-.8-.25,1.6,1.6,0,0,1-.46-.62l-2.54-6.58H524.15l-2.54,6.58a1.42,1.42,0,0,1-.44.61,1.26,1.26,0,0,1-.8.26h-2.85l10.89-27.23h3.72Zm-7.68-10.11-4.27-11.07c-.13-.33-.26-.72-.4-1.15s-.27-.9-.4-1.4a21.34,21.34,0,0,1-.82,2.57l-4.27,11Z"/><path class="cls-3" d="M562.34,180.52h-8.81v24.13h-3.67V180.52H541v-3.1h21.32Z"/><path class="cls-3" d="M570.06,204.65h-3.69V177.42h3.69Z"/><path class="cls-3" d="M602.17,191.05a15.81,15.81,0,0,1-1,5.61,12.86,12.86,0,0,1-2.74,4.4,12.21,12.21,0,0,1-4.25,2.86,15.2,15.2,0,0,1-11,0,12.26,12.26,0,0,1-4.24-2.86,12.83,12.83,0,0,1-2.73-4.4,16.74,16.74,0,0,1,0-11.23A12.93,12.93,0,0,1,579,181a12.18,12.18,0,0,1,4.24-2.88,15.07,15.07,0,0,1,11,0,12.12,12.12,0,0,1,4.25,2.88,13,13,0,0,1,2.74,4.4A15.9,15.9,0,0,1,602.17,191.05Zm-3.79,0a13.83,13.83,0,0,0-.68-4.51,9.53,9.53,0,0,0-1.94-3.37,8.42,8.42,0,0,0-3-2.12,11.07,11.07,0,0,0-8,0,8.55,8.55,0,0,0-3,2.12,9.55,9.55,0,0,0-2,3.37,14.1,14.1,0,0,0-.68,4.51,13.89,13.89,0,0,0,.68,4.49,9.42,9.42,0,0,0,2,3.36,8.28,8.28,0,0,0,3,2.11,11.21,11.21,0,0,0,8,0,8.16,8.16,0,0,0,3-2.11,9.4,9.4,0,0,0,1.94-3.36A13.62,13.62,0,0,0,598.38,191.05Z"/><path class="cls-3" d="M629.49,177.42v27.23h-1.85a1.61,1.61,0,0,1-.73-.15,1.9,1.9,0,0,1-.58-.51l-15.75-20.52q0,.47.06.93c0,.3,0,.59,0,.85v19.4h-3.23V177.42h1.9a2.58,2.58,0,0,1,.42,0,1,1,0,0,1,.3.1,1.11,1.11,0,0,1,.27.19l.28.31,15.75,20.5c0-.33-.05-.65-.06-1s0-.6,0-.88V177.42Z"/><path class="cls-3" d="M663,201.65v3H646.17V177.42H663v3h-13.1v9h10.61v2.89H649.85v9.29Z"/><path class="cls-3" d="M690.25,177.42l-11.1,27.23h-3.3l-11.1-27.23h3a1.22,1.22,0,0,1,.79.25,1.46,1.46,0,0,1,.46.63l7.68,19.21c.16.43.32.9.48,1.4s.3,1,.43,1.6c.12-.56.26-1.09.4-1.6s.29-1,.45-1.4l7.66-19.21a1.32,1.32,0,0,1,.45-.6,1.24,1.24,0,0,1,.8-.28Z"/><path class="cls-3" d="M710.64,201.65l0,3H693.84V177.42h16.78v3H697.53v9h10.6v2.89h-10.6v9.29Z"/><path class="cls-3" d="M735.91,204.65h-3.27a1.6,1.6,0,0,1-1.48-.78l-7.07-9.73a2.11,2.11,0,0,0-.7-.65,2.55,2.55,0,0,0-1.15-.2h-2.79v11.36h-3.67V177.42h7.7a16.68,16.68,0,0,1,4.46.53,8.52,8.52,0,0,1,3.11,1.51,6.11,6.11,0,0,1,1.82,2.38,8.39,8.39,0,0,1,.13,5.83,7.49,7.49,0,0,1-1.32,2.25,8.08,8.08,0,0,1-2.11,1.7,10.38,10.38,0,0,1-2.82,1.06,3.6,3.6,0,0,1,1.21,1.16Zm-12.58-14a9.33,9.33,0,0,0,2.82-.39,5.82,5.82,0,0,0,2.05-1.1,4.64,4.64,0,0,0,1.25-1.7,5.73,5.73,0,0,0,.41-2.19,4.34,4.34,0,0,0-1.59-3.66,7.72,7.72,0,0,0-4.79-1.24h-4v10.28Z"/><path class="cls-3" d="M748.77,193.8v10.85h-3.69V193.8l-10-16.38h3.23a1.17,1.17,0,0,1,.78.24,2.21,2.21,0,0,1,.49.62l6.23,10.58c.23.45.44.86.63,1.25a10,10,0,0,1,.49,1.17,12,12,0,0,1,.48-1.17c.18-.39.37-.8.59-1.25l6.21-10.58a1.89,1.89,0,0,1,.48-.59,1.11,1.11,0,0,1,.77-.27h3.25Z"/><path class="cls-3" d="M797.54,177.42l-8.49,27.23h-3.31l-6.89-20.77a5.38,5.38,0,0,1-.18-.64c-.06-.23-.12-.47-.19-.72-.06.25-.12.49-.19.72s-.12.44-.19.64l-6.93,20.77h-3.31l-8.49-27.23h3.06a1.41,1.41,0,0,1,.83.25,1.08,1.08,0,0,1,.42.63l5.63,18.92c.09.34.17.71.25,1.1s.17.82.24,1.26c.09-.44.18-.87.28-1.26a11.37,11.37,0,0,1,.31-1.1l6.4-18.92a1.4,1.4,0,0,1,.45-.6,1.24,1.24,0,0,1,.81-.28h1.06a1.25,1.25,0,0,1,.8.25,1.64,1.64,0,0,1,.46.63l6.38,18.92c.11.33.22.69.31,1.07s.19.78.28,1.19c.06-.41.13-.81.21-1.19s.16-.74.24-1.07l5.65-18.92a1.13,1.13,0,0,1,.43-.61,1.23,1.23,0,0,1,.8-.27Z"/><path class="cls-3" d="M823.67,177.42v27.23H820V192.26H805.29v12.39h-3.68V177.42h3.68v12.15H820V177.42Z"/><path class="cls-3" d="M847.42,201.65l0,3H830.62V177.42H847.4v3H834.31v9h10.6v2.89h-10.6v9.29Z"/><path class="cls-3" d="M872.69,204.65h-3.27a1.6,1.6,0,0,1-1.48-.78l-7.07-9.73a2.11,2.11,0,0,0-.7-.65,2.55,2.55,0,0,0-1.15-.2h-2.79v11.36h-3.67V177.42h7.7a16.68,16.68,0,0,1,4.46.53,8.52,8.52,0,0,1,3.11,1.51,6.11,6.11,0,0,1,1.82,2.38,8.39,8.39,0,0,1,.13,5.83,7.49,7.49,0,0,1-1.32,2.25,8.08,8.08,0,0,1-2.11,1.7,10.38,10.38,0,0,1-2.82,1.06,3.6,3.6,0,0,1,1.21,1.16Zm-12.58-14a9.33,9.33,0,0,0,2.82-.39,5.82,5.82,0,0,0,2.05-1.1,4.64,4.64,0,0,0,1.25-1.7,5.73,5.73,0,0,0,.41-2.19,4.34,4.34,0,0,0-1.59-3.66,7.72,7.72,0,0,0-4.79-1.24h-4v10.28Z"/><path class="cls-3" d="M893.17,201.65l0,3H876.37V177.42h16.78v3H880.06v9h10.6v2.89h-10.6v9.29Z"/></svg>